{"title":"Unearthed 2016 S01E05 House of Holy Relics 720p HDTV HEVC 2CH x2","uid":15480648,"size":348466120,"categoryP":"video","categoryS":"hd___tv_shows","magnet":"?xt=urn:btih:50a81710c19b926036adff722a2ed9f058c2fed2&amp;dn=Unearthed+2016+S01E05+House+of+Holy+Relics+720p+HDTV+HEVC+2CH+x2&amp;tr=udp%3A%2F%2Ftracker.leechers-paradise.org%3A6969&amp;tr=udp%3A%2F%2Fzer0day.ch%3A1337&amp;tr=udp%3A%2F%2Fopen.demonii.com%3A1337&amp;tr=udp%3A%2F%2Ftracker.coppersurfer.tk%3A6969&amp;tr=udp%3A%2F%2Fexodus.desync.com%3A6969","seeders":1,"leechers":2,"uploader":"nayhtut","files":1,"time":1470250000,"description":"[Screenshots]\r\n \nhttps://s32.postimg.org/6v9368dz9/Unearthed_2016_S01_E05_House_of_Holy_Relics_720p.jpg \nhttps://s32.postimg.org/c7xxkd1vp/Unearthed_2016_S01_E05_House_of_Holy_Relics_720p.jpg\r\n\r\n\r\nSource: Unearthed 2016 S01E05 House of Holy Relics 720p HDTV x264-DHD (1 GB)\r\n\r\n__--__--__--__--__--__--__--__--__--__--__--__--__--\r\n\r\n\r\nComplete name                            : Unearthed.2016.S01E05.House.of.Holy.Relics.720p.HDTV.HEVC.2CH.x265.mkv\r\nFormat                                   : Matroska\r\nFormat version                           : Version 4 / Version 2\r\nFile size                                : 332 MiB\r\nDuration                                 : 42 min\r\nOverall bit rate                         : 1 106 kb/s\r\nWriting application                      : Lavf57.25.100\r\nWriting library                          : Lavf57.25.100 / Lavf57.25.100\r\n\r\nVideo\r\n\r\nID                                       : 1\r\nFormat                                   : HEVC\r\nFormat/Info                              : High Efficiency Video Coding\r\nFormat profile                           :   @Main\r\nCodec ID                                 : V_MPEGH/ISO/HEVC\r\nDuration                                 : 42 min\r\nBit rate                                 : 892 kb/s\r\nWidth                                    : 1 280 pixels\r\nHeight                                   : 720 pixels\r\nDisplay aspect ratio                     : 16:9\r\nFrame rate mode                          : Constant\r\nFrame rate                               : 25.000 FPS\r\nColor space                              : YUV\r\nChroma subsampling                       : 4:2:0\r\nBit depth                                : 8 bits\r\nBits/(Pixel*Frame)                       : 0.039\r\nStream size                              : 268 MiB (81%)\r\nWriting library                          : x265 2.0+1-6a9b6a828f79:[Linux][GCC 5.2.1][64 bit] 8bit\r\nDefault                                  : Yes\r\nForced                                   : No \r\nFromStats_BitRate                        : 2940948\r\nFromStats_Duration                       : 00:42:01.411000000\r\nFromStats_FrameCount                     : 63034\r\nFromStats_StreamSize                     : 926898802\r\n\r\nAudio\r\n\r\nID                                       : 2\r\nFormat                                   : AC-3\r\nFormat/Info                              : Audio Coding 3\r\nMode extension                           : CM (complete main)\r\nFormat settings, Endianness              : Big\r\nCodec ID                                 : A_AC3\r\nDuration                                 : 42 min\r\nBit rate mode                            : Constant\r\nBit rate                                 : 192 kb/s\r\nChannel(s)                               : 2 channels\r\nChannel positions                        : Front: L R\r\nSampling rate                            : 48.0 kHz\r\nFrame rate                               : 31.250 FPS (1536 spf)\r\nBit depth                                : 32 bits\r\nCompression mode                         : Lossy\r\nStream size                              : 57.7 MiB (17%)\r\nWriting library                          : Lavc57.24.102 ac3\r\nDefault                                  : Yes\r\nForced                                   : No\r\nFromStats_BitRate                        : 383936\r\nFromStats_Duration                       : 00:42:01.343000000\r\nFromStats_FrameCount                     : 78776\r\nFromStats_StreamSize                     : 120999936\r\n\r\nText\r\n\r\nID                                       : 3\r\nFormat                                   : ASS\r\nCodec ID                                 : S_TEXT/ASS\r\nCodec ID/Info                            : Advanced Sub Station Alpha\r\nCompression mode                         : Lossless\r\nWriting library                          : Lavc57.48.101 ssa\r\nLanguage                                 : English\r\nDefault                                  : No\r\nForced                                   : No\r\nFromStats_BitRate                        : 88\r\nFromStats_Duration                       : 00:42:00.067000000\r\nFromStats_FrameCount                     : 725\r\nFromStats_StreamSize                     : 27915\r\n\r\nIMDb: http://www.imdb.com/title/tt4060508\r\n\r\nAfter adding torrent with magnet link,\r\n\r\nplease add this  following trackers list to the torrent for better seeds.\r\n\r\n\r\nudp://tracker.coppersurfer.tk:6969/announce\r\n\r\nudp://tracker.opentrackr.org:1337/announce\r\n \nhttp://tracker.baravik.org:6970/announce\r\n \nhttp://tracker2.wasabii.com.tw:6969/announce\r\n\r\nudp://9.rarbg.me:2710/announce\r\n\r\n\r\n__--__--__--__--__--__--__--__--__--__--__--__--__--\r\n\r\n\r\nEnjoy!","torrent":{"xt":"urn:btih:50a81710c19b926036adff722a2ed9f058c2fed2","amp;dn":"Unearthed+2016+S01E05+House+of+Holy+Relics+720p+HDTV+HEVC+2CH+x2","amp;tr":["udp%3A%2F%2Ftracker.leechers-paradise.org%3A6969","udp%3A%2F%2Fzer0day.ch%3A1337","udp%3A%2F%2Fopen.demonii.com%3A1337","udp%3A%2F%2Ftracker.coppersurfer.tk%3A6969","udp%3A%2F%2Fexodus.desync.com%3A6969"],"infoHash":"50a81710c19b926036adff722a2ed9f058c2fed2","infoHashBuffer":{"type":"Buffer","data":[80,168,23,16,193,155,146,96,54,173,255,114,42,46,217,240,88,194,254,210]},"announce":[],"urlList":[]}}